<svg width="18" height="18" viewBox="0 0 18 18" fill="none" xmlns="http://www.w3.org/2000/svg">
<path d="M2.5 7C2.63261 7 2.75975 7.05272 2.85352 7.14648C2.94728 7.24025 3 7.36739 3 7.5C3 7.63261 2.94728 7.75975 2.85352 7.85352C2.75975 7.94728 2.63261 8 2.5 8H2V7H2.5Z" fill="black"/>
<path d="M6.5 7C6.63261 7 6.75975 7.05272 6.85352 7.14648C6.94728 7.24025 7 7.36739 7 7.5V9.5C7 9.63261 6.94728 9.75975 6.85352 9.85352C6.75975 9.94728 6.63261 10 6.5 10H6V7H6.5Z" fill="black"/>
<path fill-rule="evenodd" clip-rule="evenodd" d="M13 3.29297V10.416C11.2341 11.1876 10 12.9497 10 15H1.5C1.10218 15 0.720758 14.8419 0.439453 14.5605C0.158149 14.2792 0 13.8978 0 13.5V1.5C0 1.10218 0.158149 0.720758 0.439453 0.439453C0.720758 0.158149 1.10218 0 1.5 0H9.70703L13 3.29297ZM1 11H2V9H2.5C2.89782 9 3.27924 8.84185 3.56055 8.56055C3.84185 8.27924 4 7.89782 4 7.5C4 7.10218 3.84185 6.72076 3.56055 6.43945C3.27924 6.15815 2.89782 6 2.5 6H1V11ZM5 11H6.5C6.89782 11 7.27924 10.8419 7.56055 10.5605C7.84185 10.2792 8 9.89782 8 9.5V7.5C8 7.10218 7.84185 6.72076 7.56055 6.43945C7.27924 6.15815 6.89782 6 6.5 6H5V11ZM9 11H10V9H11V8H10V7H12V6H9V11Z" fill="black"/>
<path d="M14.7548 17.9679C14.6785 17.9461 14.6077 17.9093 14.5423 17.8574L12.1886 15.9914C12.0578 15.8877 11.9951 15.7667 12.0003 15.6285C12.0055 15.4903 12.0683 15.3693 12.1886 15.2657C12.3194 15.162 12.4747 15.1081 12.6548 15.1039C12.8348 15.0998 12.9899 15.1494 13.1203 15.2527L14.3462 16.2246V12.5184C14.3462 12.3715 14.4089 12.2485 14.5345 12.1493C14.66 12.0501 14.8152 12.0003 15 12C15.1848 11.9997 15.3402 12.0494 15.4661 12.1493C15.5921 12.2492 15.6547 12.3722 15.6538 12.5184V16.2246L16.8797 15.2527C17.0104 15.149 17.1658 15.0993 17.3458 15.1034C17.5259 15.1076 17.681 15.1616 17.8114 15.2657C17.9312 15.3693 17.994 15.4903 17.9996 15.6285C18.0053 15.7667 17.9425 15.8877 17.8114 15.9914L15.4576 17.8574C15.3923 17.9093 15.3214 17.9461 15.2452 17.9679C15.1689 17.9896 15.0871 18.0003 15 18C14.9128 17.9996 14.8311 17.9889 14.7548 17.9679Z" fill="black"/>
</svg>
